<svg width="59" height="59" viewBox="0 0 59 59" fill="none" xmlns="http://www.w3.org/2000/svg">
<path d="M42.3361 26.6445C42.3474 26.2891 42.3544 25.9328 42.3544 25.5751C42.3544 20.5297 41.236 15.7012 39.0301 11.2235C36.9299 6.96048 33.8578 3.16042 30.1455 0.232328C30.1446 0.231569 30.1436 0.230809 30.1427 0.230049C30.1374 0.225871 30.1322 0.22144 30.1269 0.217135C30.1233 0.21435 30.1193 0.212577 30.1157 0.209792C30.0327 0.145981 29.9396 0.0950837 29.8391 0.0593798C29.8328 0.0571009 29.8267 0.0545687 29.8204 0.0525429C29.7738 0.03697 29.7258 0.0250687 29.6765 0.0164592C29.6678 0.0149399 29.6591 0.0138004 29.6503 0.0124077C29.6011 0.00506438 29.5512 0 29.5 0C29.4489 0 29.399 0.00506438 29.3499 0.0124077C29.3411 0.0136738 29.3324 0.0148133 29.3237 0.0164592C29.2744 0.0250687 29.2263 0.0370966 29.1798 0.0525429C29.1735 0.0546953 29.1674 0.0571009 29.1612 0.0593798C29.0607 0.0950837 28.9676 0.146107 28.8846 0.209792C28.881 0.212577 28.877 0.21435 28.8734 0.217135C28.8681 0.221313 28.8629 0.225745 28.8576 0.230049C28.8567 0.230809 28.8557 0.231569 28.8548 0.232328C25.1425 3.16055 22.0705 6.96048 19.9703 11.2235C17.7641 15.7012 16.6456 20.5297 16.6456 25.5751C16.6456 25.9328 16.6527 26.2891 16.664 26.6445C16.664 26.6679 16.6654 26.6913 16.6669 26.7146C16.823 31.3477 17.9307 35.7874 19.97 39.9267C22.0002 44.0476 24.9402 47.7335 28.4872 50.6199V52.2404L28.09 51.9277C26.3608 50.566 24.7522 49.0109 23.309 47.3058C22.9475 46.8788 22.3084 46.8257 21.8814 47.1871C21.4544 47.5484 21.4013 48.1876 21.7627 48.6146C23.2936 50.4234 25.0008 52.0736 26.8367 53.5193L28.4872 54.819V57.9871C28.4872 58.5465 28.9407 59 29.5 59C30.0594 59 30.5129 58.5465 30.5129 57.9871V54.819L32.1634 53.5193C33.9991 52.0737 35.7062 50.4236 37.2371 48.615C37.5985 48.1881 37.5454 47.5489 37.1184 47.1875C36.6915 46.8261 36.0523 46.8792 35.6909 47.3062C34.2478 49.0113 32.6392 50.5662 30.9101 51.9278L30.5129 52.2406V50.62C34.0599 47.7337 36.9999 44.0477 39.0301 39.9268C41.0694 35.7876 42.1771 31.3479 42.3332 26.7148C42.3348 26.6913 42.3361 26.6679 42.3361 26.6445ZM18.7078 27.0407L23.0455 22.616C23.4371 22.2165 23.4306 21.5753 23.0312 21.1837C22.6317 20.7921 21.9904 20.7985 21.5988 21.198L18.7062 24.1487C18.7718 22.7059 18.9361 21.2828 19.1964 19.8878L28.4872 10.4102V14.1709L24.131 18.6146C23.7394 19.0141 23.7459 19.6554 24.1453 20.047C24.5448 20.4386 25.1861 20.4322 25.5777 20.0327L28.4872 17.0648V21.351L19.131 30.8954C18.9109 29.6307 18.7687 28.3439 18.7078 27.0407ZM30.5129 17.0648L40.2922 27.0407C40.2313 28.3439 40.0891 29.6307 39.869 30.8954L30.5129 21.3509V17.0648ZM30.5129 14.171V10.4102L39.8036 19.8877C40.064 21.2827 40.2283 22.7056 40.2939 24.1485L30.5129 14.171ZM38.7972 15.9674L30.5129 7.51642V3.20005C34.3659 6.70384 37.1925 11.0943 38.7972 15.9674ZM28.4872 3.20005V7.51642L20.2028 15.9674C21.8076 11.0943 24.6342 6.70384 28.4872 3.20005ZM19.6416 33.2682L28.4872 24.2447V47.95C24.1356 43.993 21.0933 38.9049 19.6416 33.2682ZM30.5129 47.9502V24.2447L39.3585 33.268C37.9068 38.9049 34.8645 43.993 30.5129 47.9502Z" fill="white"/>
</svg>
